<svg xmlns="http://www.w3.org/2000/svg" width="1200" height="630" viewBox="0 0 1200 630">
  <defs>
    <linearGradient id="bg" x1="0" y1="0" x2="0" y2="1">
      <stop offset="0%" stop-color="#ffffff"/>
      <stop offset="100%" stop-color="#fde8f0"/>
    </linearGradient>
  </defs>

  <!-- Background -->
  <rect width="1200" height="630" fill="url(#bg)"/>

  <!-- Ícone do app: fundo arredondado -->
  <rect x="460" y="55" width="280" height="280" rx="68" fill="#fef0f5"/>

  <!-- Heart path do ic_heart.xml escalado 9x e centralizado -->
  <g transform="translate(492, 87) scale(9)">
    <path fill="#CF5C36"
      d="M12,21.35l-1.45,-1.32C5.4,15.36 2,12.28 2,8.5 2,5.42 4.42,3 7.5,3c1.74,0 3.41,0.81 4.5,2.09C13.09,3.81 14.76,3 16.5,3 19.58,3 22,5.42 22,8.5c0,3.78 -3.4,6.86 -8.55,11.54L12,21.35z"/>
  </g>

  <!-- Brand -->
  <text x="600" y="408" font-family="system-ui,-apple-system,sans-serif" font-size="30" font-weight="700" fill="#CF5C36" text-anchor="middle" letter-spacing="4">BONDLIVE</text>

  <!-- Headline -->
  <text x="600" y="476" font-family="system-ui,-apple-system,sans-serif" font-size="52" font-weight="800" fill="#1a1a2e" text-anchor="middle">Seu amor te convidou!</text>

  <!-- Subtítulo -->
  <text x="600" y="534" font-family="system-ui,-apple-system,sans-serif" font-size="28" fill="#888" text-anchor="middle">Instale e conecte em 1 minuto.</text>
</svg>
